<?xml version="1.0" encoding="UTF-8"?>
<svg width="830" height="1192" xmlns="http://www.w3.org/2000/svg" xmlns:xlink="http://www.w3.org/1999/xlink">
 <!-- Created with SVG-edit - http://svg-edit.googlecode.com/ -->
 <defs>
  <symbol id="svg_2" viewBox="0 0 275.102 191.446" height="191.446px" width="275.102px" y="0px" x="0px" xmlns:xlink="http://www.w3.org/1999/xlink">
   <switch>
    <g>
     <g id="svg_1">
      <g>
       <path d="m242.138,15.1c1.910004,-0.292001 1.326004,1.91 3.235992,1.618c-0.022995,2.663 -0.109985,3.657999 -0.538986,4.854c-1.721008,0.462 -1.667999,-0.849001 -2.697006,-1.079c-0.013,-2.278 1.044006,-3.483 0,-5.393z" clip-rule="evenodd" fill-rule="evenodd"/>
       <path d="m13.482,61.479c1.051,0.926998 1.163,2.792004 1.079,4.854c-1.381,-0.597 -1.059,-2.896 -1.079,-4.854z" clip-rule="evenodd" fill-rule="evenodd"/>
       <path d="m222.723999,65.792999c1.688004,-0.25 2.406998,0.469002 2.156998,2.156998c-1.688004,0.25 -2.406998,-0.468994 -2.156998,-2.156998z" clip-rule="evenodd" fill-rule="evenodd"/>
       <path d="m16.179001,70.107002c2.856998,2.534996 2.287998,8.498001 3.775,12.403c-1.199001,0.418999 -2.103001,1.132996 -3.775,1.078995c-0.064001,-4.727997 -4.374001,-10.689995 0,-13.481995z" clip-rule="evenodd" fill-rule="evenodd"/>
       <path d="m230.813995,80.353996c1.235001,0.922005 1.275009,3.039001 1.617004,4.854004c-2.166,0.008003 -1.498993,-2.816002 -1.617004,-4.854004z" clip-rule="evenodd" fill-rule="evenodd"/>
       <path d="m123.496002,87.903c-2.857002,1.652 -5.18,-0.671997 0,0l0,0z" clip-rule="evenodd" fill-rule="evenodd"/>
       <path d="m122.417,90.060997c-2.278999,1.411003 -4.473999,-0.445 -7.011002,0.540001c1.071999,-1.309998 5.348,-1.534996 7.011002,-0.540001z" clip-rule="evenodd" fill-rule="evenodd"/>
       <path d="m43.681999,98.150002c-1.299,-0.221001 -1.172001,0.985001 -2.695999,0.540001c-0.285999,-0.434006 -0.563,-0.875 -0.540001,-1.618004c0.822002,-0.831001 3.698002,-0.960999 3.236,1.078003z" clip-rule="evenodd" fill-rule="evenodd"/>
       <path d="m159.089005,97.070999c2.404999,3.821999 -1.406006,13.849998 4.853989,15.639999c2.434006,-1.528 4.38501,-6.390999 3.774002,-9.167999c2.147003,-1.350998 0.725998,5.053001 -0.539001,5.392998c-0.373001,2.313004 -0.203995,3.563004 -0.538986,4.854004c-3.19101,1.462997 -7.019012,-0.729004 -7.011002,-3.774002c0.001999,-0.791 -1.613007,-2.670998 -1.618011,-2.696999c-0.582993,-3.32 1.220001,-7.563004 1.07901,-10.248001z" clip-rule="evenodd" fill-rule="evenodd"/>
       <path d="m163.403,98.689003c1.410995,1.949997 1.917007,7.258995 1.078995,9.707001c-0.916,-2.678001 -1.126999,-6.064003 -1.078995,-9.707001z" clip-rule="evenodd" fill-rule="evenodd"/>
       <path d="m242.677994,99.767998c0.401001,-1.215996 3.024002,-0.209999 4.313995,-0.539001c-0.506989,2.106003 -2.719986,0.458 -4.313995,0.539001z" clip-rule="evenodd" fill-rule="evenodd"/>
       <path d="m246.992996,99.767998c1.636002,-0.197998 1.119003,1.757004 1.617004,2.695999c-2.136002,0.627007 -2.649994,1.110001 -4.313995,0.540001c1.460999,0.500999 -0.068008,-1.954994 -0.539001,-2.156998c1.429001,-0.009003 3.175003,0.299004 3.235992,-1.079002z" clip-rule="evenodd" fill-rule="evenodd"/>
       <path d="m22.111,103.542999c0.542,-1.356003 2.385,0.429001 2.157,1.617004c-1.733,0.474998 -0.739,-1.777 -2.157,-1.617004z" clip-rule="evenodd" fill-rule="evenodd"/>
       <path d="m251.306,177.425003c-1.018997,-0.238998 -3.25,0.733002 -2.695999,-1.07901c0.806,-0.855988 3.074005,-0.787994 2.695999,1.07901z" clip-rule="evenodd" fill-rule="evenodd"/>
       <path d="m265.328003,106.238998c0.355011,1.802002 1.678009,2.638 2.156982,4.314003c-1.247986,7.871002 -4.454987,12.562996 -1.617981,21.032005c-7.072998,0.383987 -8.778015,-7.348007 -9.166992,-11.864006c-1.481018,0.612 -1.82901,3.251999 -2.157013,4.853996c-0.796005,3.876999 -0.660004,8.430008 1.617004,12.403c2.437988,1.156998 5.122009,2.068008 6.471985,4.314011c-0.816986,2.537994 -1.350983,4.329987 -3.234985,4.853989c-8.911011,2.473999 -13.436005,-15.880997 -9.707001,-24.807999c-3.927002,1.646004 -5.783005,7.964996 -8.628998,13.48201c-6.873001,13.326996 -12.577011,43.796997 11.324997,43.681992c2.613998,-0.800995 1.764999,-5.065994 2.695999,-7.550003c8.609009,0.187012 3.265991,10.300003 -0.539001,11.863998c0.809998,0.807999 1.613007,1.622009 2.157013,2.695999c-0.429016,2.628006 -1.231018,4.882004 -3.236008,5.933014c-2.753006,-0.48201 -5.725006,-0.747009 -6.471008,-3.236008c1.962006,-0.294998 4.647003,1.779007 5.393005,-0.539001c1.272003,-1.940994 -2.016006,-3.153992 -2.695999,-4.854004c-3.591995,-0.360992 -7.434006,-1.518997 -9.707001,-3.235001c-5.343002,-4.03299 -9.399002,-13.819992 -9.167999,-22.649994c0.453003,-17.298004 12.097992,-33.802002 21.031998,-41.524002c0.117996,-2.039001 1.695007,-2.618996 2.156998,-4.313995c3.289001,1.643997 5.666992,-5.32 9.166992,-1.618004c0.104004,2.386002 -3.246979,1.384003 -3.234985,4.854004c0.623993,1.105995 2.14801,-1.403 2.156982,-2.695999c0.617004,2.249001 -1.66098,6.238998 -4.313995,7.010994c0.580017,3.914001 1.178009,7.811005 3.774994,9.707001c0.716003,-0.974998 1.606018,-5.012001 1.078003,-8.088997c0.607025,-3.004997 3.561005,-7.269005 2.696014,-10.246002c-0.903992,-3.119995 -4.110992,-3.963997 -7.011017,-3.775002c-6.953979,0.453003 -9.947983,11.841003 -15.099991,12.403c-0.621002,0.638 -0.610001,1.906006 -0.539001,3.236c-1.418991,0.558006 -3.309998,0.645004 -5.393997,0.539001c0.186996,-1.903999 1.416,-1.394997 2.697006,-1.079002c-0.309998,-4.843994 7.778992,-5.542999 8.089005,-9.167999c0.288986,-3.389999 -3.196014,-2.932999 -3.775009,-5.392998c-2.615997,-0.001999 -1.289993,1.889 -2.156998,2.695999c-2.470001,0.945 -5.412003,1.418999 -8.628006,1.618004c-1.151001,0.251999 -1.026993,-0.771004 -1.078995,-1.618004c-0.964005,1.373001 -3.291,1.383003 -4.313004,2.695999c0.988007,3.865005 5.695999,4.011002 8.628006,5.932999c-2.697006,2.400002 -7.541,-1.591995 -9.707001,-3.234993c-6.022003,2.493996 -14.501999,-0.134003 -20.492004,-1.079002c0.520996,-3.792999 3.300003,-5.328003 4.854004,-8.089005c-5.537994,-2.730995 -11.417007,-5.121994 -15.100998,-9.708c-2.054001,-5.135994 -4.164001,-10.215996 -3.235001,-18.334999c0.746994,1.450005 1.528,0.792999 2.156998,-0.540001c0.473999,-2.511993 -1.778,0.364006 -1.617996,-1.078995c-0.473999,-5.506004 3.423996,-6.641998 4.313995,-10.786003c4.850006,-3.183998 9.397003,-7.906998 15.639008,-7.549999c5.334,0.306 9.292999,6.352001 15.100998,5.931999c1.979996,4.490002 6.048996,6.894001 8.088989,11.325001c-1.019989,1.07 -2.547989,0.262001 -3.773987,0c2.671997,5.596001 4.194992,12.343002 8.088989,16.718002c3.205002,-3.128998 5.699997,-9.702003 12.403,-7.550003c6.639008,-4.596001 4.098999,-17.922997 2.696014,-25.345997c-2.352005,-3.581001 -4.415009,-7.449001 -6.471008,-11.325001c-8.022995,-4.813999 -16.970001,-11.457001 -30.740005,-10.246002c-0.225998,4.214001 -2.089005,12.147003 -5.932999,12.403c-5.345993,0.357002 -4.722992,-9.406998 -9.707001,-11.324997c-4.748001,1.723 -11.063995,1.877998 -14.561005,4.854c-1.646988,0.389999 -1.964996,-0.551003 -3.234985,-0.540001c-6.053009,4.374001 -15.425003,5.427998 -18.875,12.403999c-1.650009,0.327 -2.810013,1.145 -4.314011,1.618c-7.686996,8.671997 -18.061996,14.654999 -27.502991,21.570999c11.268997,-2.831001 20.856995,4.208 28.582001,3.236c1.995987,-0.377998 1.345993,1.890999 2.156998,2.695999c9.646988,2.217003 15.250992,8.478004 21.570999,14.021004c-1.488998,2.644997 -7.56601,0.702995 -9.707001,2.696999c-3.947006,-1.806 -6.652008,-4.853004 -11.324997,-5.932999c-2.189011,-2.125 -2.772003,-5.856003 -5.932007,-7.011002c-1.395996,3.744003 3.175003,6.166 3.235001,10.247002c-2.585999,-1.189003 -1.897003,-5.652 -4.313004,-7.011002c-1.806,0.711998 1.029007,6.062996 -1.617996,5.931999c0.162994,-3.397003 -0.332001,-7.574997 0,-10.786003c-7.335007,-7.164993 -25.968002,-5.333 -35.054001,-1.078995c4.07,2.160995 10.513,4.423996 9.707001,9.707001c-8.805,-2.393005 -20.091003,4.389 -25.885002,-1.618004c-10.440994,0.138 -22.554008,1.458 -33.436005,0.539001c-14.913994,-1.259003 -28.166004,-8.495003 -38.289001,-13.482002c1.143997,3.709999 4.254997,5.453003 5.392998,9.167999c4.205002,2.985001 10.575001,3.806 15.100002,6.471001c-2.820004,2.573006 -6.828003,3.958 -9.168003,7.011002c-2,-0.383003 -2.313999,0.920998 -4.313999,0.539001c0.816002,4.648003 2.487999,6.118996 5.393002,5.931999c3.615997,-0.232002 4.506001,-5.724998 8.627998,-4.854004c1.942001,0.410004 4.112999,3.398003 3.775002,6.472c-0.875999,7.961006 -15.816002,10.076004 -24.806999,5.933006c-3.004002,-1.386002 -5.359001,-4.325005 -8.089003,-7.011002c-2.578999,3.004997 -11.258989,4.238998 -12.942989,-0.540001c1.329,-1.546997 1.832991,-3.918999 3.236,-5.392998c-1.268,-2.387001 -0.305,-4.213005 -1.079,-6.471001c-0.426001,-1.245003 -1.905001,-1.861 -2.157001,-2.696999c-0.238,-0.790001 2.07999,-0.617004 0.54,-2.157005c-1.351,-1.350998 -0.243,-1.916 0,-4.853996c-2.204,0.086998 -5.36101,0.594002 -8.089,-1.078003c0.034,-3.381996 1.197,-5.633995 2.696,-7.549995c-1.991,-4.613007 1.645,-14.190002 -3.235,-17.796001c0.849,-5.697002 -3.055,-7.851002 -5.395,-12.401001c0.423,-6.434002 -0.112,-9.298 0.54,-14.021c3.485,3.066998 13.642,3.711998 18.875001,1.618c0,-1.079002 0,-2.157001 0,-3.235001c-1.392,-1.440001 -0.568001,1.241001 -2.697001,0.539001c-0.469,-2.407001 -3.106,-2.646002 -5.932,-2.696001c-1.473001,-1.942001 -3.497,-3.334002 -3.775,-6.472c-2.425,-1.709 -3.808,-4.461 -4.314,-8.089001c5.205,-0.344999 12.621,-1.279 17.257,1.079c0.611,2.803999 2.84,3.992001 3.775,6.472c0.051001,4.299 -0.895,6.535999 0.539999,9.707001c2.447001,0.289997 3.230001,-1.084 4.854,-1.618c1.835001,-7.697001 0.507,-13.830002 4.314001,-19.415001c1.803001,-2.645 2.152,-2.907001 4.313999,-4.854c1.073002,-0.966 2.824001,-3.473 4.854,-3.775c1.375999,0.602 -0.216,4.171 1.078999,4.854c2.734001,-0.226 4.458,-2.82 7.550003,-1.079c-1.194,3.073999 -3.435001,2.253 -4.314003,5.393c-0.661999,2.363 0.715,4.974001 0,7.550001c-1.082996,3.900999 -5.103996,5.678999 -7.010998,8.088999c-1.292,0.326 -2.459999,0.775 -4.313999,0.539c-1.128002,0.67 -2.027,1.569 -2.696003,2.697002c5.013,-0.014 17.394001,-1.349001 18.875,5.392998c-10.981998,-0.084999 -18.681999,9.526001 -28.581999,2.695999c-7.064999,0.329002 -14.349999,1.163002 -19.954,-1.077999c0.176,3.157001 5.975,4.535 10.246,7.549999c4.926,3.477001 9.438001,9.274002 17.256999,8.089001c4.027002,-0.610001 5.246,-4.210999 9.168001,-5.931999c4.061001,1.766998 6.931,6.735001 5.392998,12.403c9.097,2.236 22.798,2.741001 28.043003,9.706997c2.450996,3.256004 3.843002,10.093002 0,14.021004c-4.405998,0.181 -5.133003,-4.652 -9.167999,-3.236c2.737999,-1.432999 0.044998,-6.736 -1.079002,-9.167c-1.271999,0.148003 0.049999,2.009003 0.540001,2.156998c-0.373001,1.690002 -1.438,0.703003 -2.696999,0.539001c-1.436001,2.105003 3.105995,2.063004 2.156998,5.392998c-10.119999,-0.306 -20.252998,-0.598999 -24.806999,-6.472c2.824001,-0.477997 6.669998,2.670006 11.863998,1.618004c0.209,2.186996 -3.361,0.594002 -4.854,1.078995c3.960003,1.972 10.539001,1.326004 15.639,2.157005c1.058002,-1.444 -2.507,-2.864998 -3.774998,-3.775002c-0.329002,-2.126999 2.960999,-0.634003 4.313999,-1.079002c-0.967999,-4.064995 -5.285,-4.781998 -7.549999,-7.549995c4.957001,1.042999 8.598,2.340996 10.785995,5.931999c2,3.281998 1.246002,8.476997 5.393005,9.707001c1.737,-0.241005 3.130997,-0.823006 2.695999,-3.236c-1.124001,-0.882004 -4.288002,2.995995 -4.854004,-1.079002c1.472,-0.392998 1.086006,1.071999 2.157005,1.079002c2.478996,-3.080002 -0.402,-4.75 -1.079002,-7.550003c1.473,0.684998 2.150002,2.164001 3.236,3.236c0.736,-1.654999 -1.976997,-4.479996 -4.853996,-4.313995c-0.068001,-0.967003 0.659996,-1.138 0.538994,-2.157005c-5.469997,-4.417 -17.498997,-2.275002 -24.806999,-4.854c1.234001,-4.426998 0.670002,-10.384998 -2.696999,-11.863998c-4.449001,1.483002 -6.409,5.455002 -11.324999,6.472c-10.917002,-2.924999 -16.332001,-11.352001 -26.425001,-15.099998c1.07,1.243999 -0.135,0.598999 -0.539,1.618c0.355,1.614998 1.153,-0.516003 2.157,0c11.036,9.458 21.155,19.831001 31.818,29.660995c-3.778999,0.178001 -6.498001,-5.362 -10.247,-7.010994c-2.506001,-3.965004 -6.311001,-6.632004 -9.707001,-9.707005c6.811001,7.750004 13.652,15.468998 22.65,21.032001c0.152,0.871002 -0.509998,0.928001 -0.540001,1.617996c12.089001,3.547005 27.135998,10.143005 42.605999,10.246002c7.570999,0.050003 15.051003,-0.417999 21.032005,-3.236c0.990997,-2.818001 -1.181,-4.510002 -1.079002,-6.471001c0.429001,-8.193001 11.793999,-11.229996 8.627998,-22.110996c6.857002,4.125 10.348999,16.119999 4.854004,23.729c1.568001,0.826996 3.981995,-2.113998 5.931999,-2.695999c3.404999,-5.187004 6.122002,-13.029999 6.472,-20.493004c0.056999,-1.219997 -1.050003,-1.702999 -1.079002,-2.156998c-0.061996,-0.997002 1.139,-1.938 1.079002,-2.697002c-0.126999,-1.598999 -0.265999,-3.991997 -1.618004,-4.854c-1.585999,1.649002 -1.576996,4.895 -3.235001,6.472c-2.656998,-4.354 -5.593994,-8.427998 -13.481995,-7.549999c-0.150002,-1.107998 -1.440002,-1.076 -2.157005,-1.618c-1.013,-0.785 -0.064995,-3.529999 -1.078995,-4.313999c-1.698006,0.476002 -3.571007,2.522999 -4.314003,4.313999c-0.574997,1.385002 0.352997,2.771999 0,4.313999c-0.333,1.453003 -1.82,4.358002 -2.695999,6.471001c-2.100998,5.065002 -3.237,7.471004 -9.167999,7.010998c-4.061005,2.674004 -7.354004,3.428001 -13.482002,2.696007c-5.912003,-0.706001 -6.186996,-1.152 -10.247002,-4.314003c-5.874996,-4.577 -7.646999,-9.525002 -8.627998,-18.875c-0.543999,-5.188999 -0.387001,-5.832001 1.618,-10.247002c2.163002,-4.762999 4.679001,-8.228998 7.010998,-11.324999c2.892006,0.273001 5.900002,-2.278 9.167999,-3.236c-0.114998,-3.66 -6.333,-1.217001 -6.472,-4.854c3.416,-4.583 14.094002,-4.206 20.493004,-2.697c0.985001,-0.812 1.268997,-2.326 2.156998,-3.235001c6.470001,-0.538 9.279999,2.584001 12.943001,4.854c7.163002,0.031 15.792,1.32 18.335999,7.55c-1.454994,1.062 -4.711998,0.320999 -7.010994,0.539999c0.758995,2.167002 3.649994,0.832001 5.392998,1.079c2.583,0.365 5.271996,1.588001 7.549995,1.618c0.772003,4.084 5,6.971001 3.775009,11.324999c-2.675003,-0.685997 -6.253006,-2.923 -9.168007,-1.618c1.204002,4.263 7.094002,9.274002 8.088997,16.718002c1.061005,7.929001 -0.477997,15.520996 -2.695999,22.111c-2.119995,-0.339005 0.811996,-1.832001 -0.539993,-3.775002c-1.705002,2.07 -2.508003,5.042 -3.775002,7.550003c3.279999,0.583 1.799995,-3.593002 5.392998,-2.695999c4.083008,-6.173004 9.277008,-11.146004 13.481003,-18.336002c1.382004,-2.362 3.289993,-5.164001 3.235992,-7.011002c-0.080002,-2.743999 -2.543991,-3.586998 -3.774994,-5.931999c-0.903,-1.722 -1.561996,-4.123001 -1.617004,-5.931999c-0.257004,-8.356001 5.763,-16.541 3.235001,-26.425001c3.16301,0.913 4.442001,4.819 5.932007,7.550001c2.36499,4.334999 4.160995,8.578999 4.313995,15.639999c3.507996,-2.245001 3.904007,-7.601 6.472,-10.786001c-0.498001,-0.939999 0.018997,-2.894999 -1.617996,-2.696999c1.884995,-2.595001 -1.307999,-5.623 -1.078003,-9.167001c0.324005,-5.019 3.815994,-9.355 8.089005,-10.786c0.858002,2.198 1.238998,4.873 1.078995,8.089c4.253998,-2.326 9.826996,-5.843 16.179001,-4.314c-0.559998,3.036 -3.830002,3.361 -5.393997,5.393c-0.322006,4.531 -3.094009,6.613 -4.854004,9.707c-4.854004,1.258001 -9.513,2.711 -10.785004,7.550001c4.194,0.348999 8.893005,-3.279001 14.561005,-3.236c-3.057007,4.313 -5.970001,8.771 -7.550003,14.560999c1.737,0.921001 3.897003,-1.653999 4.854004,-3.235001c7.929993,-3.023998 13.201004,-9.487999 21.570999,-12.403999c3.585999,-1.25 9.026993,-0.973 11.863998,-3.236c0.514008,-2.362 1.270996,-4.480999 2.695999,-5.931999c3.860001,0.454 4.891006,3.737999 4.854004,8.089001c2.242004,2.830999 8.007004,1.533998 11.863998,1.617998c1.619003,0.035002 2.938995,0.886002 4.313995,0.539001c2.871002,-0.724001 3.804001,-3.491001 5.932007,-4.314001c-1.261002,-1.764999 -0.846008,-4.143 0,-6.471c2.33699,-1.3 3.649994,0.789001 5.393005,1.618c-1.49501,0.796 -2.521011,-0.083 -3.774002,1.618c0.452988,1.344001 0.705994,2.889001 0.539001,4.854001c-6.091003,4.033998 -11.125,7.952 -21.032013,7.011c3.400009,3.671 14.687012,1.899 18.875,-0.540001c2.753006,-1.602999 3.727005,-5.01 7.011002,-4.854c-1.334,3.879 -4.188995,6.236 -8.627991,7.011c2.53299,2.68 8.44899,1.977001 12.403,3.236002c2.455002,2.938 7.83699,2.947998 9.167984,7.010998c1.870026,-0.432999 2.072021,0.803001 3.774017,0.539001c3.425995,3.93 6.113007,8.319 8.628998,13.481998c0.359009,0.737 0.664001,1.479 1.078003,2.157001c0.286987,0.470001 1.460999,1.272999 1.617981,1.618c2.083008,4.558998 1.351013,8.975998 2.157013,14.560997c0.105988,0.740005 1.03299,1.415001 1.078003,2.157005c0.71701,11.802994 -4.447998,23.326996 -9.707001,32.354996zm-17.257004,-70.106998c-0.554001,1.812 1.677002,0.839001 2.695999,1.078999c1.315002,1.740002 3.417999,2.694 5.933014,3.235001c-1.450012,-2.863998 -5.419006,-3.209 -8.629013,-4.313999zm-129.967003,50.692997c-0.212997,0.928001 0.800003,1.382004 0,1.618004c-3.842995,0.820999 -7.445,1.646996 -10.785995,1.617996c1.718002,8.907005 15.382996,0.609001 22.650002,3.775002c-0.940002,-5.117996 -6.026001,-8.543999 -11.864006,-7.011002zm25.885002,-16.178993c-0.755997,-4.690002 8.522003,-6.459007 7.550003,-11.325005c-5.399994,6.104004 -11.277008,11.732002 -18.335007,16.179001c7.716003,-7.204002 15.958008,-13.882 22.111008,-22.64999c0,-0.719002 0,-1.438 0,-2.157001c2.209,0.052002 2.449005,-1.864998 3.235001,-3.236c-3.533997,-0.658997 -4.485001,1.266991 -5.932007,2.697002c-0.123001,-0.956001 0.542999,-2.701 -1.078995,-2.157009c-2.742004,1.088997 -0.408997,1.792007 0,3.775009c-1.020004,0.120998 -1.188995,-0.608002 -2.156998,-0.539001c-5.307007,8.715 -11.427002,19.48999 -19.414001,23.729004c4.263,-4.904007 9.317001,-9.019005 12.403,-15.100014c-3.473999,3.536999 -7.347,6.674004 -9.707001,11.324997c-1.537994,-0.112999 -2.529007,1.962006 -3.774994,3.236c-0.850006,0.868004 -4.354004,2.745003 -2.157005,3.236c1.497993,-0.576996 2.982994,-2.740997 4.314003,-0.539993c-1.417999,1.817993 -5.573006,0.897995 -5.393005,4.313995c7.132996,-2.575996 11.940994,-7.473999 18.335999,-10.786995zm8.089996,10.785995c2.519989,0.836998 4.181,2.806999 5.931992,3.775002c0.720001,0.398003 3.184006,-1.205002 1.617996,1.079002c2.318024,0.254997 0.689011,-1.451004 1.617004,-1.618004c4.75,5.497002 9.258011,11.235001 16.179016,14.560997c1.561996,-1.313995 6.343994,0.591003 7.011002,-1.617996c-5.667999,-4.579002 -10.219009,-10.274002 -18.875,-11.863998c-1.242004,-1.095001 -2.531998,-2.141998 -3.774002,-3.236c-1.292007,0.325996 -2.460999,0.775002 -4.313995,0.539001c-10.297012,-5.292 -25.923004,-5.799004 -35.054008,1.078995c8.461998,-3.598 21.163002,-5.518997 29.659996,-2.696999zm-32.357994,2.695999c2.181,-0.352997 5.556999,-2.331001 4.314003,-4.313995c-0.221001,0.677994 -0.696007,1.101997 -1.618004,1.078995c0.236,-0.596001 2.380997,-2.797997 1.079002,-1.617996c-2.229004,0.646996 -2.399002,3.352997 -3.775002,4.852997zm56.624992,-40.445999c-10.792999,7.183002 -21.51001,14.443001 -29.660995,24.267998c3.60199,-1.448997 6.016998,-5.061996 8.628998,-7.010998c1.061996,-0.792999 2.840988,-0.813999 3.774994,-1.618c2.126999,-1.830997 3.414001,-6.082001 7.009995,-5.931999c0.593002,-1.563999 1.723999,-2.591 2.697006,-3.775002c5.154007,-2.934998 10.703003,-5.474998 16.177994,-8.088997c1.07901,0 2.157013,0 3.236008,0c0.886002,-1.990002 4.722992,-1.029003 5.393005,-3.235001c-5.692001,-0.297001 -11.155991,4.299999 -17.257004,5.391998zm-16.178986,-32.356999c0.498001,-0.94 -0.018997,-2.895 1.617996,-2.696c0.491013,5.646 -1.000992,8.871 0,12.943001c2.922012,-5.495001 4.085007,-11.429001 2.695999,-18.875c-0.538986,0 -1.078995,0 -1.617996,0c-0.588013,2.836 -4.409012,5.283 -2.695999,8.628zm6.472,7.55c5.296005,-1.051001 8.973007,-7.132 10.785004,-11.325c0.197998,-0.458 0.934006,-1.433 -0.539001,-1.618c-4.681015,3.049 -8.677017,6.782 -10.246002,12.943zm-1.07901,-1.079c1.542007,-3.851 3.563004,-7.221999 5.932999,-10.245999c-3.891998,1.146999 -6.315002,6.622 -5.932999,10.245999zm-126.191998,-5.931999c-2.765999,-2.990001 -5.379002,3.15 -6.471001,5.393c1.695999,0.27 2.108002,-1.176001 3.236,0c0.712002,-2.713 5.466,-4.228 4.854,-6.471c-0.222,0.677999 -0.696999,1.101999 -1.618999,1.078zm56.086002,7.011c5.840996,0.451 9.348999,3.233999 14.560997,4.313999c2.337997,-1.796 5.021004,-3.247 7.550003,-4.854c-3.483002,-2.011999 -9.403,-3.504999 -14.021004,-2.695999c-3.732002,-1.661 -5.587997,-5.198 -11.324997,-4.854c0.583,3.192 2.946999,4.603 3.235001,8.09zm-59.322002,7.549999c5.160999,0.487001 2.636002,-6.712 5.931999,-8.088999c0.226002,2.563 -0.785,3.889999 -1.078999,5.931999c6.023998,-0.824999 2.755001,-9.212 4.854,-12.943c-5.883999,2.563 -10.105,7.816001 -9.707001,15.099999zm33.975002,-11.324999c2.104996,-0.536 3.375,2.289 5.931999,2.695999c2.594002,0.414 5.806999,-0.987999 8.627998,-0.539c3.586998,0.570999 4.875,2.737 7.550003,2.695999c-0.567001,-1.698 -2.110001,-2.417 -1.079002,-4.313999c-3.969002,-4.154 -16.518997,-4.416 -21.030998,-0.539zm90.599998,0c0.080994,-1.339001 -0.278,-2.238 -1.078003,-2.696c-0.080994,1.337 -0.100998,2.617 1.078003,2.696zm-67.411003,1.079c-0.197998,-1.6 -0.934998,-2.660001 -2.156998,-3.236001c0.197998,1.6 0.934998,2.661 2.156998,3.236001zm53.929008,29.120998c0.271011,-2.784 3.21701,-2.895 3.774002,-5.392998c-1.515991,-0.102001 -1.475998,-1.760002 -2.695999,-2.157001c-0.834,1.862 -1.679993,3.714001 -3.235001,4.854c0.445007,-2.049999 0.694,-3.862999 -0.539993,-5.393002c0.028992,0.928001 -0.415009,1.382 -1.078003,1.618c0.337997,-1.639 -0.690002,-4.645 0.539001,-5.392998c0.774002,3.16 0.604004,0.725998 3.774994,1.078999c-0.807999,2.496002 1.602997,1.643002 2.156998,2.157001c0.855011,0.792999 -0.048996,3.425999 1.617004,2.156998c1.373001,-3.52 0.479004,-6.498997 0,-9.167999c-0.554001,-3.088999 -1.108002,-6.924 -2.156998,-9.167c-0.556,-1.189999 -2.061996,-1.854 -2.695999,-3.236c-0.471008,-1.025999 0.819992,-2.242999 -1.078003,-1.617999c0.611984,12.180999 -9.193008,23.584998 1.617996,29.659999zm49.07399,-21.570999c-15.770996,7.777 -30.959,16.139 -40.445999,30.200001c3.067001,-1.396999 4.371002,-5.855 7.550003,-8.628002c2.440002,-2.128998 6.970001,-4.461998 10.785995,-6.472c5.284012,-2.781998 10.768005,-6.091 15.639008,-4.854c-1.652008,1.943001 -6.600006,0.591003 -7.550003,3.236c5.164993,-0.986 10.304001,-3.212997 14.561005,-3.236c9.209991,-0.049999 10.616989,8.105003 16.179001,13.482002c4.389999,-3.767002 4.311996,-11.665001 1.078995,-16.718c0.830002,-1.147001 1.201996,-2.752001 2.695999,-3.235001c-1.479004,-0.011 -1.281006,-2.544001 -0.539001,-3.236c-1.210999,-0.767 -3.554001,-0.400999 -3.774994,-2.157c-0.108002,-2.768 0.466003,-6.218 -2.156998,-6.471c-0.894012,0.544999 -0.586014,2.29 -1.078003,3.235c-1.419998,0.558001 -1.81601,2.139 -3.236008,2.697001c-0.390991,1.226999 -3.731995,-0.497 -3.235001,1.618c5.869003,-1.811001 9.650009,0.689999 9.167999,4.854c-0.446991,3.856998 -6.14299,4.462 -7.549988,5.932001c-0.905014,-3.536001 2.947998,-3.796001 4.853989,-5.932001c-0.26799,-1.890001 -2.033997,-2.281 -2.156998,-4.314001c-4.115997,0.393 -7.218994,1.802 -10.789001,-0.000999zm-24.266998,17.796001c-5.599991,1.410999 -7.869003,6.151997 -11.863998,9.167999c4.669998,-2.339001 7.440994,-6.580002 11.863998,-9.167999zm-12.403992,12.403999c6.779007,-4.909 13.714005,-10.612 22.110001,-14.021c3.451996,-1.402 7.25,-1.157001 10.246002,-3.775002c-13.52301,1.124001 -25.639008,8.09 -32.356003,17.796001zm-152.617006,-35.054001c-0.153,2.266001 3.398,5.131001 3.236,9.167999c2.422,2.894001 5.047,2.256001 10.246,2.157001c0.424,-4.27 -6.728,-5.444 -9.167,-8.628c5.973,-0.914 8.530001,6.312 10.785999,4.313999c-1.653999,-5.994999 -7.375999,-8.594999 -15.100999,-7.011zm66.332002,2.697001c2.542,0.205 3.381996,-1.292 4.853996,-2.157c-2.589996,-0.253 -3.541,1.132999 -4.853996,2.157zm20.491997,3.234999c2.192001,-0.581999 2.681,-4.771 0.540001,-5.393c-0.577003,2.607 -0.168999,2.992001 -0.540001,5.393zm-25.346001,14.561001c8.303001,-1.375999 18.160004,3.050999 20.493004,-5.393002c1.507996,-1.254997 3.042,-1.285999 4.313995,-1.618c-1.945,-2.188999 -5.385994,-2.882998 -6.472,-5.931999c-0.167,-2.144999 1.246002,-2.709 1.079002,-4.854c-11.778,-5.134998 -19.140999,8.144001 -19.414001,17.797001zm-36.670998,-8.089001c3.225998,-1.518999 3.634998,-4.635 3.774998,-8.088999c-1.026997,-0.231001 -1.355,-1.162001 -2.695999,-1.079c-0.383999,3.032 -1.619999,5.211 -1.078999,9.167999zm39.906998,-7.549999c-10.113998,5.208 -14.653999,21.646 -8.628998,33.974998c4.767998,3.681 10.155998,6.742001 18.875,6.471004c1.434998,-1.082005 2.692001,-2.340004 3.775002,-3.775002c0.054001,-4.304001 -0.092003,-6.271 -0.539001,-9.167c2.164001,-2.690002 3.556999,-6.151001 3.236,-11.325001c-1.826004,-0.867001 -3.434998,0.833 -5.931999,1.078999c-5.247002,0.514999 -12.085999,-1.029999 -16.179001,-0.540001c0.767998,-6.961998 2.654999,-12.803999 6.471001,-16.717999c-0.359001,0 -0.719002,0 -1.078003,0zm16.178001,2.157c1.611,2.703001 4.801003,3.828001 7.011002,5.932001c-0.256004,-1.694 0.671997,-2.204 1.617996,-2.696001c5.432999,-0.399 6.529999,3.537001 11.325005,3.775c-0.261002,-1.698999 1.654999,-1.220999 1.078995,-3.236c-1.246994,-1.449999 -4.738998,-0.653999 -4.853996,-3.234999c-3.412003,0.446999 -7.515999,-1.045 -11.863998,0.539c-0.872002,-1.285 -1.484001,-2.830999 -3.236,-3.236c-0.281006,0.798 -0.798004,1.358999 -1.079002,2.157zm22.650002,-1.079c-0.525002,0.949001 -2.469002,3.235001 -1.079002,4.314001c0.469002,-0.790001 0.807999,-1.709 2.156998,-1.618c0.931,1.372 -0.820999,2.091 1.079002,2.157c3.223,0.23 5.509003,0.781 8.089005,2.696999c3.365997,-0.708998 4.945999,-0.052998 8.088997,-0.539999c-1.225998,-7.334 -10.812004,-9.189999 -18.334999,-7.01zm-46.377998,2.697001c2.143997,-0.372999 2.661995,-2.372 4.313995,-3.236c-2.032997,0.483 -3.542,1.491001 -4.313995,3.236zm88.981995,18.335001c0,0.359001 0,0.718998 0,1.078999c1.751007,0.312 2.509003,-0.367001 3.775009,-0.538998c0.960999,-1.450001 -2.376007,-1.042 -0.540009,-1.618c1.733002,-0.474003 0.738998,1.778 2.156998,1.618c8.424011,-3.262001 9.550003,-13.820004 14.021011,-21.032001c-5.92601,1.999001 -12.170013,2.077999 -15.639008,6.471001c-1.134995,1.437 -0.449005,3.569 -2.695999,4.313999c0.324997,3.970001 -4.783005,7.483002 -2.156998,10.247002c1.362991,-4.686001 4.149002,-5.980003 7.011002,-9.168003c3.084991,-3.438999 4.024994,-7.569998 8.627991,-7.549999c-4.847992,5.396999 -10.119995,10.373001 -14.559998,16.178001zm-112.710999,-19.414001c-3.309998,0.638 -1.350998,2.597 0,0l0,0zm18.875,10.785999c0.922001,-2.324997 3.752003,-5.580999 3.236,-7.549999c-0.922001,2.325001 -4.062,5.271 -3.236,7.549999zm35.593002,-1.078999c2.164001,0.388 4.781998,-3.012001 5.931999,-5.393c-1.292,-0.326 -2.459999,-0.775 -4.314003,-0.539c-0.769997,1.747 -1.356995,3.676998 -1.617996,5.931999zm127.809998,-4.853001c-3.453995,-0.622999 -1.182999,1.646999 0,0l0,0zm2.695999,0.539001c5.444,-0.663 12.369995,1.971001 15.100998,0.540001c-3.852997,-1.071001 -11.080002,-1.638002 -15.100998,-0.540001zm-201.690998,3.236c-0.288,-2.049 -2.101999,-2.572002 -3.775,-3.236c0.094,2.243 1.431999,3.242001 3.775,3.236zm72.802998,2.156998c-1.524994,2.352001 -0.949997,6.540001 -3.774994,8.089001c-0.872002,-5.126999 4.204994,-9.556999 -1.618004,-10.785999c-1.099998,0.158001 -1.057999,1.459 -2.156998,1.618c1.589996,7.303001 -0.748001,11.611 0,17.796001c3.572998,-0.382 1.836998,-6.072002 5.931999,-5.932003c-0.265999,1.891003 -0.804001,3.510002 -0.539001,5.932003c4.485001,-0.009003 3.033997,-5.954002 5.931999,-7.550003c0.140999,-1.578999 -1.219002,-1.656998 -1.079002,-3.236c0.931,-1.225998 2.231003,-2.083 2.157005,-4.313999c-1.863998,-0.735001 -2.542,2.423 -3.775002,0.540001c1.954002,-2.354 1.631996,-5.684002 4.853996,-5.393002c3.917,0.354 2.268005,4.952 3.236,8.089001c0.829002,2.688 3.071007,2.928001 3.236,4.854c7.083,-0.611 9.945,2.998001 13.482002,5.931999c1.164001,-3.758999 1.405998,-6.5 1.618004,-10.246998c-2.217003,-1.679001 -2.290001,-2.229 -1.618004,-5.393002c-2.088997,-2.224998 -3.798996,-4.829998 -7.550003,-5.393c-2.567993,-0.052 -2.557999,2.475 -4.853996,2.697001c-4.158997,0.923 -4.612,-1.860001 -7.550003,-2.157001c-1.941994,1.508003 -4.449997,2.568001 -5.931999,4.854zm123.496002,-4.314999c-4.035004,-0.645 -1.738007,1.651001 0,0l0,0zm4.313995,0c-0.78299,0.295002 -2.787003,-0.630001 -2.695999,0.540001c0.783005,-0.295002 2.787003,0.630001 2.695999,-0.540001zm6.472,0.540001c-6.054001,-2.223001 -5.188995,2.253998 0,0l0,0zm16.718002,2.156998c-0.147003,-2.208 -4.651993,-2.872997 -5.932999,-2.156998c1.925995,0.771 3.477005,1.917 5.932999,2.156998zm-210.860996,-0.538998c-3.609001,1.243999 -7.224001,2.482998 -9.707001,4.854c7.485001,4.688999 13.336998,-3.095001 20.493,-3.775002c-1.577,-3.097 -8.116001,-1.230999 -11.325001,-2.695999c-0.022999,0.741001 0.254002,1.182999 0.539001,1.617001zm196.838993,0.538998c7.291992,0.978001 11.519989,5.019001 17.256989,7.550003c6.197006,9.396 14.927017,23.206997 9.707016,38.827999c3.803986,3.871002 -1.631012,8.937996 -2.696014,12.943001c2.752014,0.573997 4.240997,-2.921005 5.933014,-1.618004c0.117981,7.260002 -5.395996,7.811005 -9.168015,10.786003c-1.209,0.953003 -1.783997,2.552002 -2.695999,3.235001c-0.944992,0.709 -3.682999,0.097 -3.235992,2.156998c4.121994,1.150002 4.841003,-5.515999 10.247009,-4.853996c0.259979,-2.048004 2.625,-2.206001 3.773987,-3.774002c0.917999,-1.252998 1.088989,-3.947998 2.157013,-5.932999c0.205994,-0.382004 1.366974,-0.458 1.617981,-1.079002c1.031006,-2.556999 0.90802,-6.125 1.617004,-9.167c0.427002,-1.830002 1.468018,-3.299004 1.618011,-4.853996c0.529999,-5.498001 -1.166016,-11.013 -2.157013,-16.179005c-0.721985,-3.764 -1.173981,-4.718998 -1.078003,-7.010998c-2.016998,-3.915001 -5.097992,-6.767002 -6.471985,-11.325001c-8.358002,-2.695 -15.700012,-12.485001 -27.504013,-11.864002c-0.665985,1.747002 1.74501,0.414001 1.07901,2.159zm-203.848995,0.539001c1.378,-0.240002 2.479,-0.756001 3.236,-1.618c-1.644999,-0.026001 -2.746,0.490002 -3.236,1.618zm188.210003,-0.539001c3.063004,-0.351997 7.539993,0.709 9.707001,-0.538998c-2.513,0.027 -8.278,-1.945999 -9.707001,0.538998zm-117.025002,1.618c0.150002,-1.25 1.440002,-1.239998 2.156998,-0.539997c0.504005,-2.567001 -4.459999,-0.312 -2.156998,0.539997zm133.202995,-1.078999c-1.009995,-0.119999 -3.57399,-1.390999 -4.313995,0c1.888,-0.757 3.451996,1.513 4.313995,0zm-217.330996,3.236c2.358,1.075001 6.945,0.263 8.088999,-1.618c-2.469,0.766998 -6.292999,0.179001 -8.088999,1.618zm41.525,-0.539001c0,0.359001 0,0.719002 0,1.079002c1.327,0.837997 1.585999,-1.832001 0.540001,-1.618c-0.032001,0.327999 -0.081001,0.638 -0.540001,0.538998zm184.434994,1.617001c0.375,-1.503998 -2.684006,-2.280998 -3.236008,-1.077999c1.69902,-0.261002 1.222015,1.654999 3.236008,1.077999zm-96.531998,11.865002c3.667999,-1.815002 2.542999,-5.984001 4.854004,-9.707001c-2.164993,0.063 -3.412003,3.071999 -2.156998,4.854c-2.729996,-0.214001 -2.166,2.867001 -2.697006,4.853001zm-87.902996,-8.089001c0.359001,0 0.719002,0 1.078999,0c0,-0.360001 0,-0.719002 0,-1.078999c-0.358997,0 -0.718998,0 -1.078999,0c0,0.358997 0,0.718998 0,1.078999zm69.028004,6.471001c1.019997,3.855 0.803993,8.653999 0.539993,12.403999c-0.125999,1.779999 -1.783997,4.051003 0,5.392998c1.18,-7.849998 3.737999,-18.520996 -2.156998,-25.345997c-1.625999,3.149998 0.884003,4.774998 1.617004,7.549zm123.495995,-4.854c0,-2 -4.354004,-2.445 -4.854004,-2.157001c2.003006,0.334999 2.016998,2.657001 4.854004,2.157001zm-220.566998,38.288998c-0.281,-2.045998 -0.67,-4.393997 -2.157001,-6.471001c-1.744999,-0.667 -0.411999,1.745003 -2.157,1.079002c-1.830999,-7.672997 -6.980999,-12.934998 -11.325,-19.415001c-0.716,-1.320999 -2.006,0.593002 -2.157,-0.538998c-1.849,-3.582001 -3.152,-6.693001 -5.393,-9.168003c-0.834,-0.920998 -2.442,-2.588997 -3.775,-2.695999c3.514,6.117001 6.181,13.046001 7.55,20.493004c0.693,3.771996 -1.378,7.968994 0,11.863998c-0.835,1.701996 -2.964,4.308998 -2.157001,5.931999c2.272,1.602997 4.813001,-0.357002 7.011001,-0.539001c-0.583,7.576004 5.744,17.885002 0.54,25.347c3.709999,2.612 7.348,-1.229996 10.246,-2.696999c3.736,2.584999 8.118998,9.061996 14.560999,9.708c5.931,0.594002 12.605,-2.385002 15.100002,-7.551003c-1.339001,-1.275002 -3.174004,-0.004997 -4.854,0c0.401997,-1.754997 2.674,-1.639999 3.774998,-2.695999c-4.523998,-0.151001 -6.765999,5.099998 -11.863998,5.932999c-4.864002,0.793999 -9.556999,-1.011002 -11.864,-2.695999c-2.258001,-1.649002 -5.417,-5.880997 -5.393002,-7.551003c4.931002,3.698006 7.223001,10.035004 17.257002,8.629005c-0.773003,-3.541 -3.611,-5.018005 -3.775002,-9.167999c5.131001,0.989998 8.439999,-2.082001 10.785999,-5.393005c0.807003,-0.091995 1.990002,0.192001 2.157001,-0.540001c-4.334999,-1.596992 -9.251999,-2.612 -12.943001,-4.853996c-4.120998,-8.102997 -8.786999,-15.661003 -15.1,-21.570999c0.584002,4.164001 3.902,6.603996 5.932001,9.707001c1.916,2.93 2.981998,6.396996 5.393002,9.167999c0.487,2.389 0.545998,5.207001 1.618,7.011002c-1.344002,1.171997 -0.780003,4.252998 -2.696003,4.852997c-2.570999,-1.299995 -8.249998,-1.616997 -11.863998,-4.314003c-0.847,-3.653 -4.082001,-7.772995 -2.696001,-11.863998c2.301001,5.785004 3.545,12.631004 10.244001,14.021004c1.801998,-3.887001 -3.091002,-8.331001 -2.157001,-11.325005c1.132,2.186005 3.015001,8.484001 5.393002,5.932007c-2.200001,-3.161003 -4.52,-6.699005 -6.471001,-8.628006c0.712999,-0.005997 0.493,-0.945 1.079,-1.078995c0.949999,-0.153999 1.668999,2.538994 2.156,1.077995zm29.660999,-32.896c-0.929001,-4.921997 -1.585999,0.381001 0,0l0,0zm27.502998,8.089001c1.154999,-1.221001 1.591003,-4.732998 -0.540001,-5.392998c0.055,3.719997 -0.565994,8.115997 1.618004,9.706997c6.286995,-0.004997 8.678001,-3.904999 9.167,-9.706997c-3.571999,0.382999 -2.728004,5.181999 -5.392998,6.470997c-1.909004,-2.724998 1.981995,-3.57 1.078995,-7.010998c-0.688995,-0.028999 -0.747002,-0.691002 -1.617996,-0.539001c-1.608002,1.987 -1.530998,5.66 -4.313004,6.472zm54.468002,0c1.781998,-0.396 3.854004,-3.309998 2.695999,-4.854c-0.559998,1.958 -1.600006,3.434002 -2.695999,4.854zm12.942993,-2.695999c0.298996,-0.339001 2.190002,-1.629002 0.539001,-2.157001c0.080002,0.718002 -2.192001,1.628002 -0.539001,2.157001zm62.017014,3.775002c-4.874008,-1.554001 -3.450012,1.682999 0,0l0,0zm-21.571014,27.502998c-0.158997,2.137001 0.65799,3.295998 1.617004,4.314003c0.755997,-1.025002 -0.291,-3.700005 -1.617004,-4.314003zm7.550003,-23.189003c-5.08699,3.736 -9.210999,16.491005 -5.932999,24.807007c1.673004,4.242996 7.270996,5.279999 8.089996,9.167999c3.188004,1.305 5.767014,3.222 10.246002,3.235001c-0.714996,-3.419006 -3.022003,-5.247002 -3.235001,-9.168007c5.354004,0.642006 10.344009,2.740005 14.561005,-0.538994c0.054993,-4.909004 -0.25,-9.457001 -1.078995,-13.482002c-1.744003,-0.667 -0.412003,1.745003 -2.156006,1.079002c-0.731995,-5.556999 -3.869995,-10.368004 -3.235992,-15.639999c-5.005005,-3.950005 -13.828003,-1.979004 -17.258011,0.539993zm18.875,0c-1.375,4.173004 1.886002,8.106003 2.156998,12.403c3.657013,-0.550995 -0.047989,-5.964996 1.078003,-7.009995c1.835999,1.758995 1.57901,5.611 4.854004,5.931999c1.444,-2.510002 -2.779999,-6.438004 -2.156998,-8.089005c1.994003,1.074005 2.259003,6.713005 5.932999,4.314003c-1.831009,-2.303001 -4.188995,-4.080002 -5.393005,-7.011002c-3.244995,0.177002 -5.983994,-2.987999 -8.089996,-2.156998c0.776001,0.301998 1.315994,0.841999 1.617996,1.617996zm-118.642998,20.493004c1.360001,-1.358002 2.196999,-3.007004 3.236,-4.854004c0.974998,-1.732994 2.584999,-3.674995 3.235001,-5.392998c0.537003,-1.419998 -0.200996,-4.857002 2.156998,-3.775002c0.338005,-1.639 -0.689995,-4.644997 0.540001,-5.392998c-0.278,2.974998 1.914001,3.479004 2.695999,5.392998c-0.931,0.327003 0.042,2.557999 -1.078995,2.697006c-0.729004,-0.170006 -1.029999,-0.768005 -2.157005,-0.540001c0.228004,2.773994 -4.061996,4.844994 -1.617996,6.472c-1.079002,1.616997 -3.958,1.434998 -4.314003,3.774994c-0.230995,1.513 2.011002,-1.351997 2.157005,0.539001c-0.808006,1.925003 -2.699005,-0.577995 -2.695999,2.157005c10.328995,0.929993 14.890999,-17.634003 5.931999,-23.189003c-0.385002,9.554001 -10.18,11.787003 -8.089005,22.111zm156.392998,-16.718002c0.145996,-0.734001 -0.333984,-2.104996 -0.539001,-1.078995c-0.14798,0.734993 0.334015,2.105995 0.539001,1.078995zm-147.224998,3.775002c0.359001,0 0.719002,0 1.078003,0c0,-0.359001 0,-0.719002 0,-1.079002c-0.359001,0 -0.719002,0 -1.078003,0c0,0.360001 0,0.720001 0,1.079002zm147.764,3.775002c0.569,-0.561005 1.113007,-3.850998 0,-4.314003c-0.118988,1.010002 -1.390991,3.574005 0,4.314003zm-31.817001,22.111c-0.580994,1.452995 -4.959,1.721001 -4.853989,-0.539001c3.552994,-0.618004 6.339996,-2.252998 7.010986,-4.314003c1.733002,0.604004 3.197006,1.476006 5.393005,1.618004c-0.572998,-2.138 -3.617004,-4.632004 -2.695999,-6.471001c2.561996,1.607002 3.673996,9.416 7.550003,4.853996c-5.26001,-4.627998 -5.876999,-13.896996 -9.707001,-19.953995c-0.28801,1.869995 0.800995,5.114998 -1.07901,5.392998c-1.700989,-0.103996 -1.53299,-3.700996 -3.234985,-2.156998c2.010986,5.820999 -0.073013,12.740997 2.156998,17.795998c-5.749008,0.626999 -9.718002,1.455002 -15.100998,0c0.470993,4.204002 2.860992,6.486 4.853989,9.167999c2.906998,-0.167999 8.145004,2.700005 9.167999,-0.539001c-4.223999,-0.276001 -9.453995,-2.402 -9.707001,-4.853996c4.951004,4.719002 14.943008,5.650002 18.875,-0.539001c-2.195999,-1.862 -4.349991,-0.528999 -5.931992,0.539001c-0.697006,-0.426003 -5.193008,-1.431 -3.775009,-0.539001c0.540009,-0.002998 0.639999,0.434998 1.078003,0.538002zm-190.907997,-18.875c-2.051998,-1.015999 -4.216,-4.755005 -6.470999,-3.775002c2.197001,0.871002 4.934,4.038002 6.470999,3.775002zm36.672005,0c1.709,-0.892998 -1.581001,-4.797005 -0.539001,-3.236c0.309998,0.947998 -0.652,3.168999 0.539001,3.236zm197.917007,-3.775002c-0.036987,0.007004 0.03299,0.500999 0,0.539001c-2.559998,2.927002 2.589996,-0.996002 0,-0.539001zm-0.539001,7.011002c0.505005,-0.456001 1.151001,-3.438004 0,-3.775002c0.709991,1.670998 -1.598022,2.990997 0,3.775002zm-76.039017,1.077995c-0.093002,-1.524994 0.464005,-3.699997 -1.07901,-3.774994c-0.902985,0.967995 -0.140976,3.310997 1.07901,3.774994zm-142.370995,3.775002c-2.494999,-2.542999 -8.931,-4.004997 -11.324997,-4.853996c3.342999,2.050995 7.351997,3.433998 11.324997,4.853996zm58.782005,0.539001c0.825996,-1.07 3.967995,-0.860001 1.617996,-2.156998c2.516998,-0.899002 5.373001,-1.458 6.472,-3.775002c-4.403999,1.167999 -7.749001,3.395996 -11.324997,5.392998c2.335999,1.035004 3.339996,-1.996002 4.313995,-0.539001c-0.881996,-0.392998 -2.346001,1.071007 -1.078995,1.078003zm139.673996,-1.616997c-0.404999,2.732994 2.061005,-1.158005 2.156998,0.539993c-2.395996,1.125 -0.466003,3.394005 -3.235001,4.314003c-2.210999,0.054001 -4.419998,0.106003 -5.932999,-0.539001c-1.459991,2.135002 -2.356003,4.834 -5.931992,4.854004c0.035995,1.581001 1.231995,2.002998 2.156998,2.695999c3.384995,-2.757004 8.875992,-3.025002 14.560989,-2.156998c2.240997,-3.152 3.164001,-7.621002 5.393005,-10.786003c-3.570007,1.026001 -6.653,0.613998 -9.167999,0.540001c0.300003,-0.002998 0.612,0.434998 0,0.538002zm-219.487999,1.616997c0.028999,-0.928001 -0.415001,-1.381996 -1.079,-1.617996c-0.029001,0.927994 0.414999,1.382996 1.079,1.617996zm213.017006,2.157997c1.776001,-0.199997 2.694,-1.259995 3.774002,-2.156998c-1.470993,0.392998 -1.084991,-1.070999 -2.156998,-1.078003c-0.300018,1.316002 -2.085007,1.148003 -1.617004,3.235001zm-187.131008,-2.157997c-1.015999,0.182999 -3.931,-1.248001 -2.695999,0c0.959,-0.321999 2.239002,1.581001 2.695999,0zm28.582005,3.776001c-1.981003,0.037003 -5.226006,-0.973999 -6.472,1.078003c7.293999,0.755997 14.705994,-0.517006 18.875,-1.618004c1.671997,-0.441002 5.282997,0.678001 4.853996,-2.156998c-0.121002,-0.417999 -0.014999,-1.063004 -0.539001,-1.079002c-3.591995,3.073997 -10.000999,3.651001 -16.717995,3.776001zm-8.090004,1.078003c0.035004,-1.472 -1.389,-1.438004 -2.156998,-1.618004c-4.678001,-1.094002 -11.933998,-1.151001 -15.639,-1.617996c5.141998,1.809998 13.382996,2.375999 17.795998,3.236zm-43.141998,-0.539001c0.066998,-1.350006 1.028999,-1.688004 -0.540001,-2.157005c0.091999,0.806999 -0.192001,1.990005 0.540001,2.157005zm69.567001,-0.539001c-3.454002,-0.623001 -1.184006,1.646996 0,0l0,0zm107.317993,12.403c-1.914993,-2.723999 -5.233994,-2.473999 -7.549988,-4.314003c-2.712006,-2.154999 -3.533005,-5.826996 -7.011002,-7.010994c2.011002,6.617996 7.773987,9.482994 14.560989,11.324997zm28.582001,-4.314003c2.371002,2.482002 4.600006,5.107002 7.011002,7.550003c3.128006,-0.287003 4.056,-2.774002 5.932007,-4.313004c3.395004,-1.459999 6.242996,-3.464996 8.628983,-5.932999c0.028015,-0.928001 -0.414978,-1.381996 -1.078979,-1.617996c-4.360016,5.035995 -16.87001,-1.403999 -20.493011,4.313995zm-7.550003,2.695999c2.04599,0.443001 6.455002,-0.002998 6.470993,-3.235001c-2.57399,-1.290993 -5.090988,1.589005 -6.470993,3.235001zm-9.706985,3.775002c-3.022003,-0.393997 -4.89299,-1.937996 -7.550995,-2.695999c-3.378998,2.014 -4.858002,5.927002 -7.011002,9.167999c7.199005,0.085999 16.860001,4.286003 18.875,-3.236c-1.518997,-1.246002 -3.083008,0.681 -4.313004,-1.077995c2.936996,-1.593002 -2.056015,0.314995 0,-2.158005zm12.403,4.315002c0.141006,-1.656998 1.169998,-2.426003 1.617004,-3.775002c-1.270004,0.013 -1.587006,-0.929001 -3.235001,-0.539001c-1.491013,3.776001 -0.105011,2.056 1.617996,4.314003zm4.314987,-1.079002c0.110992,-1.549995 -0.137009,-2.738998 -1.07901,-3.235001c-0.712982,0.704002 -0.116989,2.854004 1.07901,3.235001zm13.481003,6.471001c-5.317001,7.078003 -6.227997,27.389999 5.393997,28.042999c0,-1.078995 0,-2.156998 0,-3.235992c-1.773987,-0.742004 -3.618988,-1.414001 -5.393997,-2.156006c-5.041,-10.199997 1.445999,-19.616997 5.393997,-26.964996c-4.054993,0.439995 -3.520996,5.466995 -5.932999,7.549995c0.389008,-0.620003 1.529007,-4.641998 0.539001,-3.236zm2.158005,62.557007c1.725006,-0.149994 3.092987,-4.287003 1.07901,-4.853989c-0.851013,1.126984 -0.374023,3.580978 -1.07901,4.853989zm-2.697006,1.617996c1.350006,0.067001 1.688004,1.028992 2.156998,-0.539001c-0.717987,-0.701996 -1.626999,-0.332001 -2.156998,0.539001zm-3.774994,1.617996c-0.104004,-1.543991 -3.178009,-2.893005 -4.313004,-1.617996c1.290009,0.686996 1.985001,1.968994 4.313004,1.617996zm5.393005,5.932007c0.445999,-2.095001 -0.257004,-5.812988 -2.156998,-3.774002c1.520996,0.735992 0.557983,2.310989 2.156998,3.774002z" clip-rule="evenodd" fill-rule="evenodd"/>
       <path d="m170.953995,92.757004c0.64299,0.453995 6.483002,0.334 7.011002,2.696999c-2.85199,-0.385002 -5.167999,-1.306 -7.011002,-2.696999z" clip-rule="evenodd" fill-rule="evenodd"/>
       <path d="m170.953995,100.847c0.853989,4.218002 1.880997,7.202003 4.312988,10.785004c5.519012,0.772995 7.979019,4.603996 10.786011,8.089996c2.785004,-2.014 0.673004,-8.940002 -1.617996,-10.786003c-1.533997,0.720001 0.416,2.398003 0.539001,3.235001c-0.899002,-0.375 -3.218994,-3.959 -4.313004,-5.931999c-0.983002,-1.353996 -3.490005,-1.183998 -3.236008,-3.775002c1.110001,-1.117996 2.735001,0.002007 2.695999,1.618004c6.934006,0.690002 11.179001,12.863998 6.472015,18.335999c-1.996002,0.377998 -1.345001,-1.890999 -2.156998,-2.695999c-1.555008,1.320999 -1.811005,3.941002 -2.157013,6.471001c-0.897995,0 -1.796997,0 -2.695999,0c-0.876007,-5.056 -6.061996,-5.802002 -7.011002,-10.785004c-0.055008,-1.383995 -2.009995,-0.866997 -2.695999,-1.617996c3.091995,-1.749001 0.666992,-9.788002 0,-12.942001c-1.391998,0.045998 -0.567001,2.308998 -2.695999,1.616997c0.703995,-1.726997 -0.098999,-2.391998 0,-5.392998c2.386993,1.903999 5.735992,1.071999 8.089005,3.775002c-0.520004,1.18 -3.141998,-1.699997 -4.315002,0zm9.167007,21.031998c0.699005,-3.754997 -1.320007,-4.792 -1.078003,-8.089996c-3.179993,-0.416 -5.320999,-1.869003 -5.932999,-4.854004c-0.927994,-0.028999 -1.382004,0.415001 -1.617004,1.079002c2.518997,4.310997 3.915009,9.747002 8.628006,11.864998zm2.156998,-3.236c-0.039993,-0.938995 0.121002,-1.676994 0.539993,-2.156998c-0.330994,-0.156998 -2.075989,-1.341003 -2.156998,0c0.868011,0.097 -0.878998,2.563004 1.617004,2.156998z" clip-rule="evenodd" fill-rule="evenodd"/>
      </g>
     </g>
    </g>
   </switch>
  </symbol>
 </defs>
 <g>
  <title>Layer 1</title>
  <use opacity="0.2" fill="#8e7f6c" x="214.499898" y="87.666331" transform="rotate(-90, 414.799, 596.059) matrix(4.3334, 0, 0, 4.3334, -1110.78, -198.638)" xlink:href="#svg_2" id="svg_3"/>
 </g>
</svg>